<?xml version="1.0" encoding="UTF-8"?>
<svg id="Layer_2" data-name="Layer 2" xmlns="http://www.w3.org/2000/svg" viewBox="0 0 220.41 203.56">
  <defs>
    <style>
      .cls-1 {
        fill: none;
        stroke: #000;
        stroke-miterlimit: 10;
      }
    </style>
  </defs>
  <g id="Layer_1-2" data-name="Layer 1">
    <path class="cls-1" d="M220.34,141.29c-12.73,1.88-32,3.32-41.1-8.88-2.53-4.88-1.59-10.26-1.52-15.88.97-13.97,2.95-32.16,4.71-45.8.39-1.88,1.6-12.82,3.17-11.88,1.61,10.57-.91,40.74-8.05,60.42-2.99,8.81-11.39,17.5-21.31,14.41-14.19-5.04-9.15-21.92-8.01-33.31,1.38-8.89,2.77-17.46,4.05-26.41,1.25-8.29,2.3-16.56,3.2-16.01,2.57,7.39-1.13,21.64-2.79,30.24-2.64,11.04-4.47,22.93-10.74,32.58-7.69,11.58-18.2,9.34-28.17,2-5.16-3.66-17.75-10.07-22.13-4.86-.99,1.67.54,4.4,3.87,6.65,5.86,4.16,15.42,5.71,21.95,2.06,12.64-6.88,8.54-20.7.71-30.99-6.19-10.14-20.66-18.99-18.82-31.74,2.69-13.19,16.98-12.06,18.58,1.49,1.26,8.2-.29,16.51-2.7,24.72-6.43,21.05-19.8,37.66-43.74,32-15.05-2.94-59.8-14.64-52.85-29.37,1.8-2.75,5.62-3.72,8.8-3.02,7.62,2.16,10.71,7.98,16.6,15.43,4.83,6.04,17.65,23.62,23.92,25.74,4.93.41-7.63-45.77-8.54-51.83-1.55-5.3-4.58-24.47-8.94-22-1.82,1.21-3.8,6.61-5.61,12.77-4.46,14.31-5.87,31.29-11.47,44.44-3.93,10.53-20.12,11.46-27.51,4.25C-.36,112.14.2,101.18.94,92.65,7.44,13.28,102.21-27.51,164.26,22.22c17.03,13.41,29.55,32.38,35.09,53.36,11.59,41.5-6.57,88.71-43.19,111.51-59.45,38.43-139.02,3.82-153.64-64.34"/>
  </g>
</svg>