<svg version="1.1" id="Layer_1" xmlns="http://www.w3.org/2000/svg" xmlns:xlink="http://www.w3.org/1999/xlink" x="0px" y="0px"
	 width="100%" viewBox="0 0 1273 1273" enable-background="new 0 0 1273 1273" xml:space="preserve">
<path fill="none" opacity="1.000000" stroke="#000000" stroke-linecap="round" stroke-linejoin="round" stroke-width="6.000000"
	d="
M730.500000,456.000000 
	C734.358154,454.606628 735.917419,450.909393 737.912415,447.941132 
	C755.507507,421.761536 772.792480,395.390381 788.575684,368.043671 
	C801.447937,345.740723 813.806885,323.179932 824.957458,299.979553 
	C838.455872,271.894562 849.804016,242.945358 858.447144,212.984741 
	C860.147461,207.090637 861.179871,201.002914 862.494873,194.998871 
	C863.236694,191.611740 864.248657,188.374329 867.228943,185.804077 
	C871.457703,188.890869 870.883545,193.820114 871.392700,198.013031 
	C873.225952,213.109604 874.202393,228.271393 874.775818,243.489609 
	C875.001038,249.465515 875.068115,255.506607 875.511536,261.499146 
	C876.866882,279.815674 875.786499,298.191772 876.632812,316.493866 
	C878.490295,356.664124 877.661987,396.845673 877.163818,436.995819 
	C876.915833,456.989044 877.658569,477.045288 876.286560,496.985321 
	C875.378174,510.186401 876.583008,523.398132 875.302612,536.480652 
	C874.254517,547.189575 875.520325,557.902283 874.323242,568.479980 
	C873.300232,577.519531 874.439880,586.573853 873.328430,595.478577 
	C872.304199,603.684753 873.419739,611.914673 872.320984,619.975586 
	C871.337830,627.188477 872.045532,634.351318 871.450989,641.495911 
	C870.412170,653.981323 869.907043,666.481812 869.355042,678.993591 
	C868.884399,689.659607 867.936096,700.315186 867.347839,710.991638 
	C866.824524,720.490784 866.071533,729.998047 865.335999,739.487305 
	C864.431458,751.156494 863.635376,762.858948 862.342957,774.482544 
	C861.082397,785.819763 860.392639,797.217163 858.616455,808.518311 
	C857.058594,818.430603 857.028320,828.588989 855.362793,838.476868 
	C853.396973,850.147644 851.885193,861.887695 849.651245,873.528992 
	C847.130310,886.665100 844.334717,899.695557 840.471069,912.491272 
	C839.497314,915.716187 838.130432,918.820496 837.006348,922.002258 
	C832.462402,934.863220 837.359253,943.123352 851.000549,945.496765 
	C864.314941,947.813293 877.346924,945.142212 890.518738,943.667542 
	C903.149780,942.253357 915.519226,939.565674 927.976501,937.366943 
	C943.740417,934.584412 959.361084,930.957581 974.992249,927.465210 
	C990.694275,923.956970 1006.331482,920.158691 1022.000549,916.502258 
	C1036.331299,913.158020 1050.684448,909.907898 1064.995605,906.481750 
	C1084.179932,901.888855 1103.357300,897.262146 1122.493286,892.473145 
	C1141.708496,887.664429 1161.281128,884.254700 1180.009277,877.525696 
	C1203.118774,869.222473 1222.973267,856.596802 1236.475952,835.484619 
	C1243.625854,824.305237 1247.152588,811.679749 1250.516235,799.004333 
	C1254.236084,784.986267 1256.741333,770.710510 1259.400391,756.481384 
	C1261.251099,746.578064 1262.125732,736.494324 1263.510254,726.501465 
	C1265.191040,714.371521 1266.713623,702.239319 1267.639038,690.010498 
	C1268.206543,682.511658 1268.979370,675.010498 1269.676758,667.516418 
	C1270.299072,660.827942 1270.411377,654.179504 1270.520874,647.500366 
	C1270.534546,646.664490 1270.583130,645.648621 1271.040039,645.029541 
	C1274.444946,640.416138 1273.395630,635.119019 1273.485474,629.999756 
	C1273.502930,629.001526 1273.727905,627.606018 1273.186279,627.063660 
	C1269.531738,623.404236 1270.330322,618.816467 1270.566528,614.503662 
	C1271.080444,605.120544 1270.082153,595.773560 1269.267578,586.520447 
	C1268.105713,573.325134 1266.464355,560.138306 1264.649048,546.979431 
	C1258.598145,503.114746 1247.593018,460.567841 1232.525024,418.990936 
	C1222.939575,392.541870 1211.596313,366.862305 1198.429199,342.037567 
	C1180.368408,307.986694 1159.474731,275.743256 1135.545044,245.464386 
	C1118.009399,223.276047 1099.292603,202.167068 1078.959839,182.541611 
	C1047.387085,152.067093 1013.130249,124.991730 976.058472,101.408058 
	C952.694336,86.544678 928.393005,73.407059 903.411133,61.689445 
	C873.628357,47.719971 842.719727,36.443512 811.009888,27.465090 
	C791.693665,21.995844 772.149353,17.440905 752.460205,13.710049 
	C742.921631,11.902598 733.232056,10.461943 723.516541,9.354814 
	C710.524963,7.874357 697.529785,6.588408 684.516235,5.331770 
	C660.854614,3.046910 637.171692,3.258779 613.503723,3.699432 
	C602.859497,3.897609 592.139893,4.590939 581.508667,5.591743 
	C567.806458,6.881629 554.089172,8.362018 540.515503,10.594239 
	C508.346680,15.884465 476.573456,22.972815 445.493195,32.978851 
	C423.210724,40.152489 401.406769,48.510967 379.976349,57.946316 
	C339.956665,75.566139 302.523804,97.555672 266.954590,122.936356 
	C233.978882,146.466431 203.848892,173.210876 176.078812,202.574539 
	C149.299652,230.890427 125.346046,261.454987 104.351341,294.405273 
	C91.314774,314.865601 79.394348,335.864532 68.487381,357.493652 
	C51.490780,391.198792 38.322788,426.439819 27.712284,462.562347 
	C22.139553,481.534241 17.755257,500.903748 14.336410,520.471436 
	C12.327293,531.970520 10.592491,543.516846 8.619064,555.020447 
	C7.322395,562.579041 7.354501,570.355408 6.454909,577.994690 
	C5.182424,588.800720 5.203952,599.692261 4.276554,610.480774 
	C2.883903,626.681763 3.414216,642.852844 3.742874,658.995056 
	C3.959520,669.635742 4.312458,680.394226 5.619901,690.985168 
	C7.184734,703.661133 8.270710,716.388550 10.322121,729.028870 
	C12.245584,740.880737 14.149322,752.718567 16.430443,764.513428 
	C19.991604,782.926941 24.713957,801.033508 30.027611,818.991821 
	C37.402977,843.917908 46.540352,868.183899 56.922157,892.033875 
	C74.307770,931.973816 95.857010,969.509033 121.041603,1004.970459 
	C139.447891,1030.887451 159.919144,1055.108521 181.967102,1078.031616 
	C218.240158,1115.744629 258.837067,1148.087036 303.034698,1175.944946 
	C321.284637,1187.447998 340.154694,1198.001099 359.564240,1207.366821 
	C395.580353,1224.746094 432.958893,1238.818359 471.544983,1249.334961 
	C488.452759,1253.943115 505.639313,1257.648682 522.969055,1260.677002 
	C534.796448,1262.743896 546.676147,1264.458496 558.519836,1266.377686 
	C566.582825,1267.684204 574.867126,1267.558716 582.992676,1268.559570 
	C597.956787,1270.403076 612.964417,1270.705322 627.998840,1270.435059 
	C629.843994,1270.401855 631.180725,1271.255127 632.459534,1272.063965 
	C635.910950,1274.246582 639.288147,1274.518555 642.452148,1271.941284 
	C644.208923,1270.510254 646.012756,1270.474609 648.000061,1270.491577 
	C651.499817,1270.521484 655.002136,1270.420166 658.499634,1270.514282 
	C671.554565,1270.865479 684.548035,1269.508057 697.483032,1268.315918 
	C714.718384,1266.727661 731.913452,1264.300903 748.978821,1261.376465 
	C768.345520,1258.057495 787.535217,1253.636719 806.474243,1248.406860 
	C836.202881,1240.197388 865.262024,1229.852417 893.425842,1217.333252 
	C912.751770,1208.742798 931.611328,1199.070801 950.049561,1188.587158 
	C974.190002,1174.861206 997.347839,1159.688477 1019.460144,1142.947388 
	C1039.459473,1127.806152 1058.436035,1111.452515 1076.560181,1094.062744 
	C1102.487793,1069.185669 1126.083496,1042.303833 1147.467163,1013.475647 
	C1163.885986,991.340881 1178.608765,968.103088 1192.062500,944.034912 
	C1199.674072,930.417908 1206.016235,916.171997 1213.393188,902.442627 
	C1215.278442,898.934082 1217.116089,895.150452 1218.209961,891.415039 
	C1219.047607,888.554504 1220.791870,888.458618 1222.500000,887.500000 
"/>
<path fill="none" opacity="1.000000" stroke="#000000" stroke-linecap="round" stroke-linejoin="round" stroke-width="6.000000"
	d="
M499.500000,691.500000 
	C500.933960,697.137756 497.914612,702.068481 496.313904,706.938843 
	C485.945679,738.485779 475.861328,770.163940 463.397461,800.958496 
	C451.178162,831.148682 438.840759,861.352295 419.535553,888.025757 
	C414.412384,895.104248 408.800049,901.620544 401.488556,906.482788 
	C393.625854,911.711609 386.047760,912.449951 377.982361,906.022156 
	C355.818665,888.358093 336.405579,867.915039 318.040527,846.465332 
	C291.220917,815.140747 267.871887,781.292908 247.645462,745.417969 
	C233.446518,720.233887 221.086487,694.054871 212.047211,666.484497 
	C207.924393,653.909668 204.641876,641.129700 202.307968,628.034241 
	C200.282700,616.670593 199.666779,605.258362 200.730148,594.021790 
	C202.703812,573.165955 213.188431,558.669861 233.917419,551.268677 
	C255.685699,543.496460 276.638763,533.562012 297.577179,523.663269 
	C313.358337,516.202576 329.044342,508.586487 344.480103,500.462219 
	C364.296600,490.032257 384.079559,479.554016 401.029816,464.533630 
	C422.129303,445.836426 436.632629,422.652740 447.436584,396.973328 
	C452.503082,384.931122 455.915466,372.287231 458.408386,359.482178 
	C460.618256,348.131348 460.753479,336.565765 460.531494,324.999390 
	C459.962646,295.353546 449.834747,269.488647 429.979675,247.518372 
	C406.664001,221.718826 376.841064,206.937851 343.984009,197.555954 
	C333.536743,194.572876 322.845093,192.750443 312.026978,191.298920 
	C301.342255,189.865326 290.669739,188.939255 280.008728,189.634094 
	C263.689484,190.697723 247.509735,192.937149 232.995697,201.492706 
	C220.403351,208.915512 214.099304,220.016800 213.502014,234.500076 
	C213.006210,246.522430 215.142578,258.463043 214.538147,270.501923 
	C214.011444,280.992401 213.647049,291.494415 213.308594,301.993835 
	C212.975708,312.320374 212.029892,322.658997 211.343231,332.989594 
	C210.534180,345.161438 209.472153,357.333313 208.394028,369.490601 
	C207.462585,379.993805 206.345566,390.483795 205.384277,400.989410 
	C204.484100,410.827362 203.425659,420.661560 202.376923,430.486877 
	C201.095688,442.490387 199.690399,454.482727 198.408371,466.490204 
	C197.144348,478.328888 195.698318,490.152191 194.348801,501.982758 
	C193.112411,512.821594 191.709396,523.650024 190.437485,534.492676 
	C189.045578,546.358215 187.049164,558.151672 185.537582,570.004761 
	C184.350388,579.314209 183.663895,588.687927 182.458328,597.994629 
	C180.965744,609.517151 179.053299,620.985046 177.536423,632.504822 
	C176.354492,641.480835 175.675140,650.523804 174.455032,659.493896 
	C172.977982,670.352966 170.678177,681.120789 169.654648,692.014526 
	C168.836868,700.718628 167.213104,709.292053 166.386459,717.989197 
	C165.573837,726.538696 163.716064,734.983704 162.533417,743.504639 
	C161.379761,751.816650 160.627899,760.184631 159.464096,768.494995 
	C158.293869,776.851135 156.356705,785.125671 155.635361,793.511658 
	C154.927856,801.736755 153.468460,809.838013 152.344452,817.978516 
	C151.237457,825.995911 150.162292,834.046265 148.722748,842.040100 
	C147.751358,847.434387 146.851273,852.983704 146.611237,858.504822 
	C146.478012,861.569031 144.742844,864.378845 145.500000,867.500000 
"/>
<path fill="none" opacity="1.000000" stroke="#000000" stroke-linecap="round" stroke-linejoin="round" stroke-width="6.000000"
	d="
M727.500000,466.000000 
	C729.387451,467.593048 729.642151,469.677795 729.522827,472.001160 
	C728.888000,484.356873 730.425903,496.661743 730.791138,508.991364 
	C731.022827,516.808899 730.616089,524.745117 731.661987,532.478088 
	C732.771423,540.681152 731.559937,548.919067 732.678711,556.975159 
	C733.750000,564.688782 732.963928,572.347778 733.537048,579.997253 
	C734.759460,596.312012 735.000732,612.663025 735.758545,628.987976 
	C736.099060,636.322510 735.646301,643.737366 736.635437,650.981506 
	C737.776611,659.338806 736.629822,667.743835 737.689087,675.975647 
	C738.617310,683.189087 737.965393,690.349976 738.544556,697.496399 
	C739.691162,711.645569 740.039490,725.821716 740.653259,739.993347 
	C741.194580,752.492737 742.056335,764.984985 742.645996,777.493103 
	C743.195923,789.159607 744.091248,800.814270 744.651978,812.492676 
	C745.092102,821.657104 745.800537,830.853699 746.680237,839.982605 
	C747.965454,853.318237 748.737671,866.700806 750.267029,880.026733 
	C751.121948,887.476501 751.829163,895.012878 752.646118,902.484009 
	C753.803101,913.064514 755.460022,923.623718 758.002808,933.999329 
	C758.769470,937.127747 759.123779,940.198914 757.158875,943.030762 
	C752.788147,942.184875 749.925842,939.325989 746.989136,936.511353 
	C731.042664,921.227722 717.493530,903.894714 703.985107,886.511597 
	C677.137512,851.963196 652.614075,815.785645 629.091858,778.941345 
	C614.820618,756.587585 601.251526,733.768372 588.553284,710.470947 
	C579.028992,692.996887 569.380859,675.574646 560.998840,657.500549 
	C554.504944,643.497742 548.130859,629.437073 541.442993,615.527405 
	C538.252319,608.891357 533.629700,602.925232 530.058594,596.680542 
	C526.255005,590.029236 521.627808,584.633179 516.410034,579.593140 
	C508.964050,572.400757 500.439453,566.952148 490.028931,564.382812 
	C473.324066,560.260071 457.934448,562.809326 442.959137,570.924622 
	C429.892151,578.005798 422.263245,588.993896 419.154755,603.034241 
	C417.357483,611.152222 416.267914,619.349609 417.177338,628.033813 
	C418.353271,639.262817 420.216644,650.141907 424.564056,660.473022 
	C430.838654,675.384094 438.982758,688.739014 455.486755,694.537720 
	C464.834106,697.821899 474.113647,696.677612 483.507294,695.041931 
	C488.587067,694.157410 493.182953,691.644714 498.488525,691.315308 
	C501.336853,691.138489 504.371643,688.071594 504.267731,685.509399 
	C503.945068,677.554016 507.618103,670.763977 509.587402,663.523804 
	C515.000732,643.621521 520.866516,623.842651 526.454346,603.987122 
	C527.089355,601.730896 527.633667,599.566833 529.500000,598.000000 
"/>
<path fill="none" opacity="1.000000" stroke="#000000" stroke-linecap="round" stroke-linejoin="round" stroke-width="6.000000"
	d="
M559.000000,651.500000 
	C568.938965,644.570374 577.617432,636.140320 586.451294,627.947449 
	C621.945312,595.028687 653.747620,558.695862 683.922668,520.938171 
	C697.215271,504.305267 709.813904,487.106964 722.333557,469.879028 
	C724.112061,467.431610 726.750244,466.005798 728.146606,463.069702 
	C730.875366,457.332092 728.499329,451.988434 727.883545,446.513092 
	C727.796326,445.737549 727.476868,444.820801 727.529053,444.001862 
	C728.201233,433.465729 726.639038,423.007629 726.328430,412.505066 
	C725.963867,400.173340 724.912048,387.850952 724.341675,375.507324 
	C723.902832,366.010376 722.951294,356.520142 722.377075,347.007416 
	C721.571777,333.666595 720.471985,320.328857 719.310791,307.016510 
	C718.540222,298.183105 717.687683,289.311646 716.495789,280.500580 
	C713.995483,262.016418 712.683167,243.316620 706.502686,225.499069 
	C701.204163,210.224396 691.184021,198.884857 676.940857,191.615952 
	C668.291443,187.201782 658.929749,184.279022 649.001648,184.558640 
	C643.334656,184.718262 637.705383,184.030533 631.969788,185.370590 
	C621.032410,187.925995 616.424622,195.781403 614.642883,205.526123 
	C612.682983,216.244888 612.318054,227.254776 610.369385,237.976257 
	C608.243347,249.673874 606.033752,261.377899 603.754761,273.049744 
	C601.288696,285.679535 598.925232,298.352936 596.442993,310.988800 
	C593.519531,325.869934 590.206421,340.675293 586.988647,355.497528 
	C583.874512,369.842285 580.673950,384.168304 577.498108,398.499573 
	C574.173584,413.501556 571.017944,428.544006 567.454895,443.489227 
	C562.636658,463.699249 557.516235,483.837372 552.495605,503.998901 
	C547.182007,525.337158 541.867188,546.675232 536.478516,567.994568 
	C534.952881,574.030212 533.182678,580.004517 531.491272,585.997559 
	C530.913025,588.046326 530.155762,590.024353 528.500000,591.500000 
"/>
<path fill="none" opacity="1.000000" stroke="#000000" stroke-linecap="round" stroke-linejoin="round" stroke-width="6.000000"
	d="
M557.500000,653.500000 
	C547.314209,660.639526 537.745728,668.649780 527.007996,675.013428 
	C521.795349,678.102661 516.738770,681.461182 511.463837,684.435913 
	C509.408844,685.594788 507.040253,686.465576 504.500000,686.000000 
"/>
</svg>